<svg width="50" height="50" viewBox="0 0 50 50" fill="none" xmlns="http://www.w3.org/2000/svg">
<path d="M0 0V50H50V0H0ZM47.0703 47.0703H2.92969V2.92969H47.0703V47.0703Z" fill="#F5F5F5"/>
<path d="M45.8008 12.5464C43.19 12.6668 43.247 12.657 42.9519 12.6817L44.4981 8.26407C44.4981 8.26407 39.6717 10.0403 38.4482 10.3581C35.2348 7.4686 30.4585 7.34094 27.0437 9.44063C24.2474 11.1605 22.7465 14.1139 23.2471 17.566C17.8048 16.8104 13.2194 14.2296 9.59917 9.87875L8.45417 8.50293L7.59858 10.0748C6.51722 12.0611 6.15814 14.3322 6.5872 16.4696C6.76326 17.3465 7.06249 18.1828 7.47699 18.9659L6.49474 18.5851L6.37821 20.227C6.2601 21.8949 6.81519 23.8419 7.8633 25.4348C8.15842 25.8833 8.5384 26.3759 9.02002 26.8619L8.51243 26.784L9.1318 28.6654C9.94591 31.1373 11.6368 33.0498 13.8312 34.1129C11.6397 35.0433 9.86928 35.637 6.95927 36.5947L4.29688 37.4703L6.75598 38.8154C7.69358 39.3283 11.0067 41.0411 14.2802 41.555C21.5568 42.6967 29.7495 41.7669 35.2649 36.7974C39.9105 32.6117 41.4348 26.6576 41.1182 20.4615C41.0704 19.5234 41.3272 18.6282 41.8414 17.9411C42.8715 16.5653 45.7944 12.5556 45.8008 12.5464V12.5464ZM39.8968 16.4838C39.0428 17.6246 38.6151 19.0815 38.6917 20.5856C39.0112 26.8356 37.3114 31.6825 33.6392 34.9911C29.3496 38.8562 22.4305 40.3733 14.6567 39.1534C13.2489 38.9326 11.7939 38.4381 10.5897 37.9442C13.0294 37.1044 14.9135 36.3558 17.9562 34.915L22.2037 32.9037L17.5141 32.6034C15.2678 32.4596 13.3974 31.3705 12.2476 29.6021C12.8581 29.5667 13.4468 29.4678 14.0329 29.3044L18.5056 28.0581L13.9955 26.9531C11.804 26.4162 10.5548 25.1043 9.89271 24.0982C9.45795 23.4371 9.17391 22.7598 9.00356 22.1354C9.45573 22.2567 9.98295 22.3432 10.8332 22.4275L15.0076 22.8406L11.7001 20.2594C9.31704 18.3998 8.36202 15.606 9.06214 12.9203C16.4996 20.6379 25.2322 20.0579 26.1112 20.2619C25.9177 18.3817 25.9126 18.3773 25.862 18.1983C24.7363 14.2172 27.2033 12.1958 28.316 11.5115C30.6402 10.0824 34.3295 9.86703 36.8849 12.2214C37.4368 12.7295 38.1831 12.9294 38.8817 12.7558C39.5086 12.6 40.0232 12.4349 40.527 12.2553L39.4782 15.2515L40.817 15.2525C40.5643 15.5914 40.2613 15.9972 39.8968 16.4838Z" fill="#F5F5F5"/>
</svg>
