<svg width="50" height="50" viewBox="0 0 50 50" fill="none" xmlns="http://www.w3.org/2000/svg">
<path d="M0 0V50H50V0H0ZM47.0703 47.0703H2.92969V2.92969H47.0703V47.0703Z" fill="#D0D0D0"/>
<path d="M43.7894 4.88281H6.11328C5.54151 4.88281 5.07812 5.34683 5.07812 5.91938V43.983C5.07812 44.5556 5.54151 45.0195 6.11328 45.0195H18.638V45.0104C19.2033 45.0039 19.6364 44.687 19.6563 44.1508C19.7077 42.757 19.6714 41.3603 19.6714 40.0128C18.6626 40.06 17.6996 40.1876 16.7474 40.1326C14.6473 40.0115 13.0336 39.1142 12.1966 37.055C11.7009 35.8351 10.9538 34.7916 9.79037 34.0954C9.57311 33.9652 9.38315 33.7736 9.21691 33.579C8.99964 33.3252 9.04029 33.0645 9.38357 32.9948C9.7299 32.9243 10.1083 32.875 10.4498 32.939C11.7911 33.1911 12.7186 34.0335 13.4286 35.1539C14.8326 37.3706 16.9935 38.0491 19.4248 37.0255C19.5603 36.9684 19.7326 36.83 19.7582 36.7037C19.9542 35.7225 20.3204 34.8278 21.0584 34.0434C20.2379 33.8912 19.4779 33.7792 18.7326 33.6062C16.5863 33.1089 14.6581 32.2142 13.2481 30.4373C12.0978 28.9878 11.5717 27.291 11.3299 25.4851C10.9512 22.6565 11.2902 20.0088 13.23 17.7484C13.328 17.6342 13.3812 17.4003 13.3376 17.258C12.8517 15.6684 12.926 14.0922 13.4075 12.5203C13.6602 11.6948 13.7305 11.6536 14.5718 11.7687C14.6232 11.7756 14.6732 11.7885 14.7242 11.7972C16.4106 12.0766 17.862 12.8943 19.2918 13.7721C19.484 13.8902 19.7768 13.9637 19.988 13.9123C23.403 13.0824 26.8116 13.0859 30.2261 13.9153C30.4244 13.9633 30.6891 13.8949 30.8786 13.7955C31.656 13.3886 32.4 12.9155 33.1873 12.5297C34.1032 12.0813 35.0679 11.744 36.1066 11.7626C36.2883 11.7661 36.5695 11.9399 36.6303 12.1008C37.2552 13.7587 37.387 15.4482 36.889 17.1737C36.8359 17.3579 36.9149 17.6204 37.0138 17.802C37.5053 18.7049 38.1915 19.5382 38.5024 20.496C39.4504 23.4153 39.1049 26.3062 37.8145 29.05C36.6321 31.565 34.4392 32.8394 31.8434 33.4967C30.9668 33.7186 30.0686 33.8535 29.1228 34.0395C30.3622 35.3359 30.5565 36.9181 30.5345 38.5752C30.5116 40.2846 30.5177 41.9945 30.5168 43.7043C30.5164 44.5324 30.8774 44.9899 31.5074 45.0167C31.507 45.0193 44.8242 45.0193 44.8242 45.0193V5.91938C44.8241 5.34683 44.3608 4.88281 43.7894 4.88281Z" fill="#D0D0D0"/>
</svg>
