<svg width="50" height="50" viewBox="0 0 50 50" fill="none" xmlns="http://www.w3.org/2000/svg">
<path d="M0 0V50H50V0H0ZM47.0703 47.0703H2.92969V2.92969H47.0703V47.0703Z" fill="#D0D0D0"/>
<path d="M16.2109 17.6758H7.42188V42.5781H16.2109V17.6758ZM13.2812 39.6484H10.3516V20.6055H13.2812V39.6484Z" fill="#D0D0D0"/>
<path d="M11.8164 16.2109C14.2395 16.2109 16.2109 14.2395 16.2109 11.8164C16.2109 9.39331 14.2395 7.42188 11.8164 7.42188C9.39331 7.42188 7.42188 9.39331 7.42188 11.8164C7.42188 14.2395 9.39331 16.2109 11.8164 16.2109ZM11.8164 10.3516C12.624 10.3516 13.2812 11.0088 13.2812 11.8164C13.2812 12.624 12.624 13.2812 11.8164 13.2812C11.0088 13.2812 10.3516 12.624 10.3516 11.8164C10.3516 11.0088 11.0088 10.3516 11.8164 10.3516Z" fill="#D0D0D0"/>
<path d="M27.9297 29.3945C27.9297 27.779 29.2439 26.4648 30.8594 26.4648C32.4749 26.4648 33.7891 27.779 33.7891 29.3945V42.5781H42.5781V28.6621C42.5781 22.6044 37.6495 17.6758 31.5918 17.6758C30.3349 17.6758 29.0985 17.8894 27.9297 18.3029V17.6758H19.1406V42.5781H27.9297V29.3945ZM25 29.3945V39.6484H22.0703V20.6055H25V23.3173L27.2549 21.8731C28.5496 21.0438 30.0495 20.6055 31.5918 20.6055C36.0344 20.6055 39.6484 24.2195 39.6484 28.6621V39.6484H36.7188V29.3945C36.7188 26.1635 34.0904 23.5352 30.8594 23.5352C27.6283 23.5352 25 26.1635 25 29.3945Z" fill="#D0D0D0"/>
</svg>
